<svg width="1280" height="640" viewBox="0 0 1280 640" fill="none" xmlns="http://www.w3.org/2000/svg">
  <defs>
    <linearGradient id="bg" x1="0" y1="0" x2="1280" y2="640" gradientUnits="userSpaceOnUse">
      <stop stop-color="#F6F1E7"/>
      <stop offset="1" stop-color="#E9EDF2"/>
    </linearGradient>
    <linearGradient id="panel" x1="0" y1="0" x2="1" y2="1">
      <stop stop-color="#FFFFFF"/>
      <stop offset="1" stop-color="#F7F8FA"/>
    </linearGradient>
  </defs>

  <rect width="1280" height="640" rx="32" fill="url(#bg)"/>
  <rect x="48" y="48" width="1184" height="544" rx="28" fill="#FFFFFF" fill-opacity="0.55"/>

  <rect x="92" y="110" width="468" height="418" rx="24" fill="url(#panel)" stroke="#D5D9DF" stroke-width="2"/>
  <rect x="120" y="138" width="164" height="14" rx="7" fill="#1F2937"/>
  <rect x="120" y="164" width="132" height="12" rx="6" fill="#1F2937" fill-opacity="0.78"/>

  <rect x="120" y="214" width="260" height="74" rx="12" fill="#FAFBFC" stroke="#C9CED6" stroke-width="2"/>
  <path d="M146 214V288" stroke="#C9CED6" stroke-width="2"/>
  <path d="M238 214V288" stroke="#C9CED6" stroke-width="2"/>
  <path d="M314 214V288" stroke="#C9CED6" stroke-width="2"/>
  <path d="M120 251H380" stroke="#C9CED6" stroke-width="2"/>

  <rect x="120" y="326" width="316" height="10" rx="5" fill="#111827"/>
  <rect x="120" y="350" width="404" height="8" rx="4" fill="#4B5563" fill-opacity="0.85"/>
  <rect x="120" y="373" width="380" height="8" rx="4" fill="#4B5563" fill-opacity="0.82"/>
  <rect x="120" y="396" width="388" height="8" rx="4" fill="#4B5563" fill-opacity="0.8"/>

  <rect x="120" y="438" width="140" height="10" rx="5" fill="#7C2D12"/>
  <rect x="278" y="438" width="140" height="10" rx="5" fill="#7C2D12"/>
  <rect x="120" y="462" width="188" height="8" rx="4" fill="#6B7280"/>
  <rect x="322" y="462" width="190" height="8" rx="4" fill="#6B7280"/>

  <line x1="106" y1="148" x2="106" y2="500" stroke="#7B8797" stroke-width="3" stroke-dasharray="2 7"/>
  <text x="92" y="394" fill="#475569" font-family="Arial, sans-serif" font-size="22" transform="rotate(-90 92 394)">Binding Line</text>

  <g opacity="0.95">
    <rect x="630" y="156" width="528" height="328" rx="30" fill="#101828"/>
    <rect x="668" y="194" width="120" height="38" rx="19" fill="#F4F6F8"/>
    <text x="694" y="219" fill="#111827" font-family="Arial, sans-serif" font-size="22" font-weight="700">OCR</text>

    <path d="M792 213H858" stroke="#CBD5E1" stroke-width="4" stroke-linecap="round"/>
    <path d="M848 204L864 213L848 222" stroke="#CBD5E1" stroke-width="4" stroke-linecap="round" stroke-linejoin="round"/>

    <rect x="880" y="194" width="132" height="38" rx="19" fill="#E0ECFF"/>
    <text x="907" y="219" fill="#163A72" font-family="Arial, sans-serif" font-size="22" font-weight="700">Layout</text>

    <path d="M1016 213H1082" stroke="#CBD5E1" stroke-width="4" stroke-linecap="round"/>
    <path d="M1072 204L1088 213L1072 222" stroke="#CBD5E1" stroke-width="4" stroke-linecap="round" stroke-linejoin="round"/>

    <rect x="1100" y="194" width="74" height="38" rx="19" fill="#FEE2E2"/>
    <text x="1118" y="219" fill="#7F1D1D" font-family="Arial, sans-serif" font-size="22" font-weight="700">PDF</text>

    <text x="668" y="304" fill="#FFFFFF" font-family="Arial, sans-serif" font-size="48" font-weight="700">XSLS Exam Skill</text>
    <text x="668" y="350" fill="#D0D5DD" font-family="Arial, sans-serif" font-size="24">Scan or OCR sample exam papers into a reusable</text>
    <text x="668" y="383" fill="#D0D5DD" font-family="Arial, sans-serif" font-size="24">LaTeX project for formal exam-sheet production.</text>

    <rect x="668" y="426" width="118" height="34" rx="17" fill="#1D4ED8"/>
    <text x="696" y="448" fill="#FFFFFF" font-family="Arial, sans-serif" font-size="18" font-weight="700">A3 / 8K</text>
    <rect x="798" y="426" width="166" height="34" rx="17" fill="#374151"/>
    <text x="821" y="448" fill="#FFFFFF" font-family="Arial, sans-serif" font-size="18" font-weight="700">Landscape Pair</text>
    <rect x="976" y="426" width="144" height="34" rx="17" fill="#7C2D12"/>
    <text x="1004" y="448" fill="#FFFFFF" font-family="Arial, sans-serif" font-size="18" font-weight="700">Binding Line</text>
  </g>
</svg>
